<?xml version="1.0" encoding="utf-8"?>
<!-- Generator: Adobe Illustrator 27.2.0, SVG Export Plug-In . SVG Version: 6.00 Build 0)  -->
<svg version="1.1" id="meta_names" xmlns="http://www.w3.org/2000/svg" xmlns:xlink="http://www.w3.org/1999/xlink" x="0px" y="0px"
	 viewBox="0 0 800 600" style="enable-background:new 0 0 800 600;" xml:space="preserve">
<style type="text/css">
	.st0{fill:#644BF7;}
</style>
<g>
	<g>
		<path class="st0" d="M400,46.88L400,46.88c-65.52,0-118.63,53.11-118.63,118.63v72.81c25.72,0,46.58-20.85,46.58-46.58v-29.28
			c0-39.48,32-71.48,71.48-71.48h1.14c39.48,0,71.48,32,71.48,71.48v7.85c0,11.55-4.3,22.7-12.06,31.25l-92.93,102.46
			c-17.28,19.05-15.85,48.51,3.21,65.79h0l120.6-132.55c17.86-19.63,27.76-45.22,27.76-71.77v0C518.63,99.99,465.52,46.88,400,46.88
			z"/>
		<path class="st0" d="M400,452.99L400,452.99c65.52,0,118.63-53.11,118.63-118.63v-72.81c-25.72,0-46.58,20.85-46.58,46.58v29.28
			c0,39.48-32,71.48-71.48,71.48h-1.14c-39.48,0-71.48-32-71.48-71.48v-7.85c0-11.55,4.3-22.7,12.06-31.25l92.93-102.46
			c17.28-19.05,15.85-48.51-3.21-65.79h0L309.14,262.6c-17.86,19.63-27.76,45.22-27.76,71.77v0
			C281.37,399.88,334.48,452.99,400,452.99z"/>
	</g>
</g>
<g>
	<g>
		<path class="st0" d="M107.73,499.8h11.34v6.35c4.06-4.93,8.89-7.4,14.49-7.4c2.98,0,5.56,0.61,7.75,1.84
			c2.19,1.23,3.98,3.08,5.39,5.56c2.04-2.48,4.25-4.34,6.61-5.56c2.36-1.23,4.89-1.84,7.57-1.84c3.42,0,6.3,0.69,8.67,2.08
			c2.36,1.39,4.13,3.42,5.3,6.11c0.85,1.98,1.27,5.19,1.27,9.63v29.73h-12.3v-26.58c0-4.61-0.42-7.59-1.27-8.93
			c-1.14-1.75-2.89-2.63-5.25-2.63c-1.72,0-3.34,0.52-4.86,1.58c-1.52,1.05-2.61,2.59-3.28,4.62c-0.67,2.03-1.01,5.23-1.01,9.61
			v22.33h-12.3v-25.48c0-4.52-0.22-7.44-0.66-8.76c-0.44-1.31-1.12-2.29-2.03-2.93s-2.17-0.96-3.74-0.96c-1.9,0-3.61,0.51-5.12,1.53
			c-1.52,1.02-2.6,2.5-3.26,4.42c-0.66,1.93-0.98,5.12-0.98,9.59v22.59h-12.3V499.8z"/>
		<path class="st0" d="M275.82,499.8v9.81h-8.41v18.74c0,3.79,0.08,6.01,0.24,6.63c0.16,0.63,0.53,1.15,1.1,1.55
			c0.57,0.41,1.26,0.61,2.08,0.61c1.14,0,2.79-0.39,4.95-1.18l1.05,9.55c-2.86,1.23-6.1,1.84-9.72,1.84c-2.22,0-4.22-0.37-6-1.12
			c-1.78-0.75-3.09-1.71-3.92-2.89c-0.83-1.18-1.41-2.78-1.73-4.79c-0.26-1.43-0.39-4.32-0.39-8.67v-20.27h-5.65v-9.81h2.02
			c2,0,3.63-1.63,3.63-3.63v-7.53h12.35v11.16H275.82z"/>
		<path class="st0" d="M302.36,513.99l-11.16-2.01c1.25-4.49,3.41-7.82,6.48-9.98c3.07-2.16,7.62-3.24,13.66-3.24
			c5.49,0,9.57,0.65,12.26,1.95c2.69,1.3,4.58,2.95,5.67,4.95c1.1,2,1.64,5.67,1.64,11.01l-0.13,14.36c0,4.09,0.2,7.1,0.59,9.04
			c0.39,1.94,1.13,4.02,2.21,6.24h-12.17c-0.32-0.82-0.72-2.03-1.18-3.63c-0.2-0.73-0.35-1.21-0.44-1.45
			c-2.1,2.04-4.35,3.58-6.74,4.6c-2.39,1.02-4.95,1.53-7.66,1.53c-4.79,0-8.56-1.3-11.32-3.9c-2.76-2.6-4.14-5.88-4.14-9.85
			c0-2.63,0.63-4.97,1.88-7.03c1.25-2.06,3.01-3.63,5.28-4.73c2.26-1.1,5.52-2.05,9.78-2.87c5.75-1.08,9.73-2.09,11.95-3.02v-1.23
			c0-2.36-0.58-4.05-1.75-5.06c-1.17-1.01-3.37-1.51-6.61-1.51c-2.19,0-3.9,0.43-5.12,1.29
			C304.11,510.32,303.12,511.83,302.36,513.99z M318.83,523.97c-1.58,0.53-4.07,1.15-7.49,1.88c-3.41,0.73-5.65,1.45-6.7,2.15
			c-1.6,1.14-2.41,2.58-2.41,4.34c0,1.72,0.64,3.21,1.93,4.46c1.28,1.26,2.92,1.88,4.9,1.88c2.22,0,4.33-0.73,6.35-2.19
			c1.49-1.11,2.47-2.47,2.93-4.07c0.32-1.05,0.48-3.05,0.48-6V523.97z"/>
		<path class="st0" d="M428.18,546.3h-12.3v-23.73c0-5.02-0.26-8.27-0.79-9.74c-0.52-1.48-1.38-2.62-2.56-3.44
			c-1.18-0.82-2.61-1.22-4.27-1.22c-2.13,0-4.04,0.58-5.74,1.75c-1.69,1.17-2.85,2.71-3.48,4.64c-0.63,1.93-0.94,5.49-0.94,10.69
			v21.06h-12.3v-46.5h11.43v6.83c4.06-5.25,9.17-7.88,15.33-7.88c2.71,0,5.19,0.49,7.44,1.47c2.25,0.98,3.95,2.23,5.1,3.74
			c1.15,1.52,1.95,3.24,2.41,5.17c0.45,1.93,0.68,4.69,0.68,8.28V546.3z"/>
		<path class="st0" d="M457.78,513.99l-11.16-2.01c1.25-4.49,3.41-7.82,6.48-9.98c3.07-2.16,7.62-3.24,13.66-3.24
			c5.49,0,9.57,0.65,12.26,1.95c2.69,1.3,4.58,2.95,5.67,4.95c1.1,2,1.64,5.67,1.64,11.01l-0.13,14.36c0,4.09,0.2,7.1,0.59,9.04
			c0.39,1.94,1.13,4.02,2.21,6.24h-12.17c-0.32-0.82-0.72-2.03-1.18-3.63c-0.2-0.73-0.35-1.21-0.44-1.45
			c-2.1,2.04-4.35,3.58-6.74,4.6c-2.39,1.02-4.95,1.53-7.66,1.53c-4.79,0-8.56-1.3-11.32-3.9c-2.76-2.6-4.14-5.88-4.14-9.85
			c0-2.63,0.63-4.97,1.88-7.03s3.01-3.63,5.28-4.73c2.26-1.1,5.52-2.05,9.78-2.87c5.75-1.08,9.73-2.09,11.95-3.02v-1.23
			c0-2.36-0.58-4.05-1.75-5.06c-1.17-1.01-3.37-1.51-6.61-1.51c-2.19,0-3.9,0.43-5.12,1.29
			C459.54,510.32,458.54,511.83,457.78,513.99z M474.25,523.97c-1.58,0.53-4.07,1.15-7.49,1.88c-3.41,0.73-5.65,1.45-6.7,2.15
			c-1.6,1.14-2.41,2.58-2.41,4.34c0,1.72,0.64,3.21,1.93,4.46c1.28,1.26,2.92,1.88,4.9,1.88c2.22,0,4.33-0.73,6.35-2.19
			c1.49-1.11,2.47-2.47,2.93-4.07c0.32-1.05,0.48-3.05,0.48-6V523.97z"/>
		<path class="st0" d="M507.92,499.8h11.34v6.35c4.06-4.93,8.89-7.4,14.49-7.4c2.98,0,5.56,0.61,7.75,1.84s3.98,3.08,5.39,5.56
			c2.04-2.48,4.25-4.34,6.61-5.56s4.89-1.84,7.57-1.84c3.42,0,6.3,0.69,8.67,2.08s4.13,3.42,5.3,6.11c0.85,1.98,1.27,5.19,1.27,9.63
			v29.73h-12.3v-26.58c0-4.61-0.42-7.59-1.27-8.93c-1.14-1.75-2.89-2.63-5.25-2.63c-1.72,0-3.34,0.52-4.86,1.58
			c-1.52,1.05-2.61,2.59-3.28,4.62c-0.67,2.03-1.01,5.23-1.01,9.61v22.33h-12.3v-25.48c0-4.52-0.22-7.44-0.66-8.76
			c-0.44-1.31-1.12-2.29-2.03-2.93s-2.17-0.96-3.74-0.96c-1.9,0-3.61,0.51-5.12,1.53c-1.52,1.02-2.6,2.5-3.26,4.42
			c-0.66,1.93-0.98,5.12-0.98,9.59v22.59h-12.3V499.8z"/>
		<path class="st0" d="M624.22,531.5l13.15,2.06c-1.69,4.49-4.36,7.92-8.01,10.27c-3.65,2.35-8.21,3.52-13.69,3.52
			c-8.67,0-15.09-2.64-19.26-7.92c-3.29-4.23-4.93-9.57-4.93-16.03c0-7.71,2.16-13.74,6.48-18.1c4.32-4.36,9.79-6.55,16.39-6.55
			c7.42,0,13.28,2.28,17.57,6.85c4.29,4.57,6.34,11.57,6.15,21h-33.07c0.09,3.65,1.16,6.49,3.19,8.52c2.03,2.03,4.57,3.04,7.61,3.04
			c2.07,0,3.81-0.53,5.21-1.58C622.43,535.53,623.5,533.84,624.22,531.5z M624.97,519.07c-0.09-3.56-1.08-6.27-2.96-8.12
			c-1.88-1.85-4.16-2.78-6.86-2.78c-2.88,0-5.26,0.98-7.14,2.93c-1.88,1.96-2.8,4.61-2.77,7.97H624.97z"/>
		<path class="st0" d="M648.84,533.03l12.35-1.88c0.52,2.39,1.59,4.21,3.2,5.45c1.6,1.24,3.85,1.86,6.74,1.86
			c3.18,0,5.57-0.58,7.18-1.75c1.08-0.82,1.62-1.91,1.62-3.29c0-0.93-0.29-1.71-0.87-2.32c-0.61-0.58-1.99-1.12-4.12-1.62
			c-9.93-2.19-16.22-4.19-18.87-6c-3.68-2.51-5.52-6-5.52-10.46c0-4.03,1.59-7.41,4.77-10.16c3.18-2.74,8.12-4.11,14.8-4.11
			c6.36,0,11.09,1.04,14.19,3.11c3.09,2.07,5.22,5.14,6.39,9.2l-11.6,2.15c-0.5-1.81-1.44-3.2-2.82-4.16
			c-1.39-0.96-3.36-1.44-5.93-1.44c-3.24,0-5.56,0.45-6.96,1.36c-0.93,0.64-1.4,1.47-1.4,2.5c0,0.88,0.41,1.62,1.23,2.23
			c1.11,0.82,4.94,1.97,11.49,3.46c6.55,1.49,11.13,3.31,13.73,5.47c2.57,2.19,3.85,5.24,3.85,9.15c0,4.26-1.78,7.92-5.34,10.99
			c-3.56,3.07-8.83,4.6-15.81,4.6c-6.33,0-11.35-1.28-15.04-3.85C652.39,540.93,649.98,537.44,648.84,533.03z"/>
		<path class="st0" d="M220.86,531.5l13.15,2.06c-1.69,4.49-4.36,7.92-8.01,10.27c-3.65,2.35-8.21,3.52-13.69,3.52
			c-8.67,0-15.09-2.64-19.26-7.92c-3.29-4.23-4.93-9.57-4.93-16.03c0-7.71,2.16-13.74,6.48-18.1c4.32-4.36,9.79-6.55,16.39-6.55
			c7.42,0,13.28,2.28,17.57,6.85c4.29,4.57,6.34,11.57,6.15,21h-33.07c0.09,3.65,1.16,6.49,3.19,8.52c2.03,2.03,4.57,3.04,7.61,3.04
			c2.07,0,3.81-0.53,5.21-1.58C219.08,535.53,220.14,533.84,220.86,531.5z M221.61,519.07c-0.09-3.56-1.08-6.27-2.96-8.12
			c-1.88-1.85-4.16-2.78-6.86-2.78c-2.88,0-5.26,0.98-7.14,2.93c-1.88,1.96-2.8,4.61-2.77,7.97H221.61z"/>
	</g>
</g>
</svg>
