<svg width="600" height="600" viewBox="0 0 600 600" fill="none" xmlns="http://www.w3.org/2000/svg">
<path d="M300 600C465.685 600 600 465.685 600 300C600 134.315 465.685 0 300 0C134.315 0 0 134.315 0 300C0 465.685 134.315 600 300 600Z" fill="url(#paint0_linear_252_23)"/>
<path d="M462.221 247.454C462.221 186.66 412.779 137.281 352.047 137.281C296.899 137.281 251.055 178.038 243.114 230.953H172.829C159.181 230.953 148.139 241.995 148.139 255.643V426.611C148.139 440.259 159.181 451.301 172.829 451.301H343.797C357.444 451.301 368.487 440.259 368.487 426.611V356.388C421.526 348.385 462.221 302.603 462.221 247.454ZM368.549 322.827V269.601C375.31 264.576 379.653 256.512 379.653 247.454C379.653 232.194 367.308 219.849 352.047 219.849C336.787 219.849 324.442 232.194 324.442 247.454C324.442 256.512 328.784 264.576 335.546 269.601V418.298H181.142V263.956H241.812V318.981C235.05 324.005 230.707 332.07 230.707 341.127C230.707 356.388 243.052 368.732 258.313 368.732C273.573 368.732 285.918 356.388 285.918 341.127C285.918 332.07 281.576 324.005 274.814 318.981V247.454C274.814 204.899 309.43 170.283 351.985 170.283C394.541 170.283 429.157 204.899 429.157 247.454C429.219 284.303 403.164 315.259 368.549 322.827Z" fill="url(#paint1_linear_252_23)"/>
<defs>
<linearGradient id="paint0_linear_252_23" x1="0" y1="600" x2="600" y2="0" gradientUnits="userSpaceOnUse">
<stop stop-color="#00CF91"/>
<stop offset="1" stop-color="#32FFB4"/>
</linearGradient>
<linearGradient id="paint1_linear_252_23" x1="148.139" y1="451.301" x2="469.611" y2="443.543" gradientUnits="userSpaceOnUse">
<stop stop-color="#0000A3"/>
<stop offset="1" stop-color="#2F2FF2"/>
</linearGradient>
</defs>
</svg>
