<svg class="MuiSvgIcon-root MuiSvgIcon-fontSizeLarge css-5vivon" focusable="false" aria-hidden="true" viewBox="0 0 32 32" xmlns="http://www.w3.org/2000/svg"><g clip-path="url(#clip0_4541_16420)"><path d="M28.6258 2.80078L17.6826 10.8318L19.7085 6.09277L28.6258 2.80078Z" fill="#E27625" data-darkreader-inline-fill="" style="--darkreader-inline-fill: #e58339;"></path><path d="M3.39258 2.80078L14.2272 10.9041L12.2918 6.09277L3.39258 2.80078Z" fill="#E27625" data-darkreader-inline-fill="" style="--darkreader-inline-fill: #e58339;"></path><path d="M24.6827 21.4492L21.7705 25.8627L27.9927 27.5629L29.7834 21.5397L24.6827 21.4492Z" fill="#E27625" data-darkreader-inline-fill="" style="--darkreader-inline-fill: #e58339;"></path><path d="M2.23535 21.5397L4.00796 27.5629L10.2302 25.8627L7.33613 21.4492L2.23535 21.5397Z" fill="#E27625" data-darkreader-inline-fill="" style="--darkreader-inline-fill: #e58339;"></path><path d="M9.88631 13.98L8.16797 16.5847L14.3359 16.856L14.1189 10.2539L9.88631 13.98Z" fill="#E27625" data-darkreader-inline-fill="" style="--darkreader-inline-fill: #e58339;"></path><path d="M22.1141 13.9781L17.8273 10.1797L17.6826 16.8541L23.8506 16.5828L22.1141 13.9781Z" fill="#E27625" data-darkreader-inline-fill="" style="--darkreader-inline-fill: #e58339;"></path><path d="M10.2295 25.861L13.9556 24.0703L10.754 21.5742L10.2295 25.861Z" fill="#E27625" data-darkreader-inline-fill="" style="--darkreader-inline-fill: #e58339;"></path><path d="M18.0439 24.0703L21.77 25.861L21.2636 21.5742L18.0439 24.0703Z" fill="#E27625" data-darkreader-inline-fill="" style="--darkreader-inline-fill: #e58339;"></path><path d="M21.77 25.861L18.0439 24.0703L18.3514 26.476L18.3153 27.4889L21.77 25.861Z" fill="#D7C1B3" data-darkreader-inline-fill="" style="--darkreader-inline-fill: #d1b8a8;"></path><path d="M10.2295 25.861L13.6843 27.4889L13.6662 26.476L13.9556 24.0703L10.2295 25.861Z" fill="#D7C1B3" data-darkreader-inline-fill="" style="--darkreader-inline-fill: #d1b8a8;"></path><path d="M13.7571 20.0008L10.6641 19.0964L12.8527 18.1016L13.7571 20.0008Z" fill="#2F343B" data-darkreader-inline-fill="" style="--darkreader-inline-fill: #c7c2ba;"></path><path d="M18.2607 20.0008L19.1651 18.1016L21.3538 19.0964L18.2607 20.0008Z" fill="#2F343B" data-darkreader-inline-fill="" style="--darkreader-inline-fill: #c7c2ba;"></path><path d="M10.23 25.8627L10.7726 21.4492L7.33594 21.5397L10.23 25.8627Z" fill="#CC6228" data-darkreader-inline-fill="" style="--darkreader-inline-fill: #db7a46;"></path><path d="M21.2451 21.4492L21.7697 25.8627L24.6818 21.5397L21.2451 21.4492Z" fill="#CC6228" data-darkreader-inline-fill="" style="--darkreader-inline-fill: #db7a46;"></path><path d="M23.8506 16.582L17.6826 16.8533L18.2614 20.0006L19.1658 18.1014L21.3545 19.0962L23.8506 16.582Z" fill="#CC6228" data-darkreader-inline-fill="" style="--darkreader-inline-fill: #db7a46;"></path><path d="M10.6641 19.0962L12.8527 18.1014L13.7571 20.0006L14.3359 16.8533L8.16797 16.582L10.6641 19.0962Z" fill="#CC6228" data-darkreader-inline-fill="" style="--darkreader-inline-fill: #db7a46;"></path><path d="M8.16797 16.582L10.7545 21.5743L10.6641 19.0962L8.16797 16.582Z" fill="#E27625" data-darkreader-inline-fill="" style="--darkreader-inline-fill: #e58339;"></path><path d="M21.3541 19.0962L21.2637 21.5743L23.8502 16.582L21.3541 19.0962Z" fill="#E27625" data-darkreader-inline-fill="" style="--darkreader-inline-fill: #e58339;"></path><path d="M14.3356 16.8555L13.7568 20.0028L14.4804 23.7108L14.6431 18.809L14.3356 16.8555Z" fill="#E27625" data-darkreader-inline-fill="" style="--darkreader-inline-fill: #e58339;"></path><path d="M17.6825 16.8555L17.375 18.809L17.5378 23.7108L18.2613 20.0028L17.6825 16.8555Z" fill="#E27625" data-darkreader-inline-fill="" style="--darkreader-inline-fill: #e58339;"></path><path d="M18.2606 20.002L17.5371 23.7101L18.0436 24.0718L21.2632 21.5757L21.3536 19.0977L18.2606 20.002Z" fill="#F5841F" data-darkreader-inline-fill="" style="--darkreader-inline-fill: #f68e31;"></path><path d="M10.6641 19.0977L10.7545 21.5757L13.9561 24.0718L14.4806 23.7101L13.7571 20.002L10.6641 19.0977Z" fill="#F5841F" data-darkreader-inline-fill="" style="--darkreader-inline-fill: #f68e31;"></path><path d="M18.3148 27.4912L18.3509 26.4783L18.0796 26.2431H13.9375L13.6662 26.4783L13.6843 27.4912L10.2295 25.8633L11.4414 26.8581L13.9013 28.5403H18.0977L20.5757 26.8581L21.7695 25.8633L18.3148 27.4912Z" fill="#C0AD9E" data-darkreader-inline-fill="" style="--darkreader-inline-fill: #b5afa6;"></path><path d="M18.0443 24.0727L17.5378 23.7109H14.4809L13.9564 24.0727L13.667 26.4784L13.9383 26.2432H18.0804L18.3517 26.4784L18.0443 24.0727Z" fill="#2F343B" data-darkreader-inline-fill="" style="--darkreader-inline-fill: #c7c2ba;"></path><path d="M29.0775 11.3563L30 6.92481L28.6253 2.80078L18.0439 10.5605L22.1137 13.9791L27.8657 15.6432L29.1318 14.178L28.5711 13.7801L29.4574 12.9842L28.7881 12.4597L29.6563 11.8085L29.0775 11.3563Z" fill="#763E1A" data-darkreader-inline-fill="" style="--darkreader-inline-fill: #e4a983;"></path><path d="M2 6.92481L2.94057 11.3563L2.34367 11.8085L3.22997 12.4597L2.56072 12.9842L3.42894 13.7801L2.8863 14.178L4.15245 15.6432L9.8863 13.9791L13.9561 10.5605L3.39276 2.80078L2 6.92481Z" fill="#763E1A" data-darkreader-inline-fill="" style="--darkreader-inline-fill: #e4a983;"></path><path d="M27.8657 15.6446L22.1138 13.9805L23.8502 16.5851L21.2637 21.5774L24.6823 21.5412H29.7831L27.8657 15.6446Z" fill="#F5841F" data-darkreader-inline-fill="" style="--darkreader-inline-fill: #f68e31;"></path><path d="M9.88651 13.9805L4.15266 15.6446L2.23535 21.5412H7.33613L10.7547 21.5774L8.16817 16.5851L9.88651 13.9805Z" fill="#F5841F" data-darkreader-inline-fill="" style="--darkreader-inline-fill: #f68e31;"></path><path d="M17.6822 16.856L18.0439 10.5615L19.708 6.09375H12.292L13.9561 10.5615L14.3359 16.856L14.4625 18.8276L14.4806 23.7113H17.5375V18.8276L17.6822 16.856Z" fill="#F5841F" data-darkreader-inline-fill="" style="--darkreader-inline-fill: #f68e31;"></path></g><defs><clipPath id="clip0_4541_16420"><rect width="28" height="25.739" fill="white" transform="translate(2 2.80078)" data-darkreader-inline-fill="" style="--darkreader-inline-fill: #e8e6e3;"></rect></clipPath></defs></svg>
